<svg width="420" height="280" viewBox="0 0 420 280" fill="none" xmlns="http://www.w3.org/2000/svg">
  <rect width="420" height="280" rx="28" fill="#EDF3FF"/>
  <circle cx="336" cy="68" r="54" fill="#B9D0FF"/>
  <rect x="34" y="42" width="164" height="196" rx="22" fill="#1E4CD9"/>
  <rect x="52" y="64" width="128" height="18" rx="9" fill="#7CA8FF"/>
  <rect x="52" y="96" width="92" height="12" rx="6" fill="#DCE7FF"/>
  <rect x="52" y="118" width="110" height="12" rx="6" fill="#DCE7FF"/>
  <rect x="52" y="150" width="72" height="42" rx="12" fill="#7CA8FF"/>
  <path d="M88 162V181" stroke="white" stroke-width="8" stroke-linecap="round"/>
  <path d="M72 170H104" stroke="white" stroke-width="8" stroke-linecap="round"/>
  <rect x="220" y="114" width="154" height="96" rx="24" fill="white"/>
  <rect x="244" y="136" width="106" height="14" rx="7" fill="#DCE7FF"/>
  <rect x="244" y="162" width="78" height="14" rx="7" fill="#7CA8FF"/>
  <circle cx="330" cy="84" r="24" fill="#1E4CD9"/>
  <path d="M320 84H340" stroke="white" stroke-width="6" stroke-linecap="round"/>
  <path d="M330 74V94" stroke="white" stroke-width="6" stroke-linecap="round"/>
</svg>